# AST/ASF file generated using VICON BodyLanguage
# -----------------------------------------------
:version 1.10
:name VICON
:units
  mass 1.0
  length 0.45
  angle deg
:documentation
   .ast/.asf automatically generated from VICON data using
   VICON BodyBuilder and BodyLanguage model FoxedUp or BRILLIANT.MOD
:root
   order TX TY TZ RX RY RZ
   axis XYZ
   position 0 0 0  
   orientation 0 0 0 
:bonedata
  begin
     id 1 
     name lhipjoint
     direction 0.584852 -0.759097 0.285867 
     length 2.43633 
     axis 0 0 0  XYZ
  end
  begin
     id 2 
     name lfemur
     direction 0.34202 -0.939693 0  
     length 7.14704  
     axis 0 0 20  XYZ
    dof rx ry rz
    limits (-160.0 20.0)
           (-70.0 70.0)
           (-60.0 70.0)
  end
  begin
     id 3 
     name ltibia
     direction 0.342022 -0.939692 0   
     length 7.68483   
     axis 0 0 20   XYZ
    dof rx
    limits (-10.0 170.0)
  end
  begin
     id 4 
     name lfoot
     direction 0.0999605 -0.274639 0.956337   
     length 2.40452   
     axis -90 7.62852e-016 20   XYZ
    dof rx rz
    limits (-45.0 90.0)
           (-70.0 20.0)
  end
  begin
     id 5 
     name ltoes
     direction 1.53468e-011 -4.21881e-011 1   
     length 1.19837   
     axis -90 7.62852e-016 20   XYZ
    dof rx
    limits (-90.0 20.0)
  end
  begin
     id 6 
     name rhipjoint
     direction -0.569886 -0.769002 0.289597   
     length 2.40495  
     axis 0 0 0  XYZ 
  end
  begin
     id 7 
     name rfemur
     direction -0.34202 -0.939693 0   
     length 7.45086   
     axis 0 0 -20   XYZ
    dof rx ry rz
    limits (-160.0 20.0)
           (-70.0 70.0)
           (-70.0 60.0)
  end
  begin
     id 8 
     name rtibia
     direction -0.34202 -0.939693 0   
     length 7.76831   
     axis 0 0 -20   XYZ
    dof rx
    limits (-10.0 170.0)
 end
 begin
     id 9 
     name rfoot
     direction -0.0798572 -0.219406 0.97236   
     length 2.35911  
     axis -90 -7.62852e-016 -20   XYZ
    dof rx rz
    limits (-45.0 90.0)
           (-20.0 70.0)
  end
  begin
     id 10 
     name rtoes
     direction -1.53469e-011 -4.21728e-011 1   
     length 1.18261   
     axis -90 -7.62852e-016 -20   XYZ
    dof rx
    limits (-90.0 20.0)
  end
  begin
     id 11 
     name lowerback
     direction 0.0242088 0.999437 0.0232389   
     length 2.1561   
     axis 0 0 0   XYZ
    dof rx ry rz
    limits (-20.0 45.0)
           (-30.0 30.0)
           (-30.0 30.0)
  end
  begin
     id 12 
     name upperback
     direction -0.0356893 0.999013 -0.0264323   
     length 2.14431   
     axis 0 0 0   XYZ
    dof rx ry rz
    limits (-20.0 45.0)
           (-30.0 30.0)
           (-30.0 30.0)
  end
  begin
     id 13 
     name thorax
     direction -0.0472163 0.998194 -0.0371284   
     length 2.16169   
     axis 0 0 0   XYZ
    dof rx ry rz
    limits (-20.0 45.0)
           (-30.0 30.0)
           (-30.0 30.0)
  end
  begin
     id 14 
     name lowerneck
     direction 0.00863244 0.999921 0.00911972   
     length 1.58651   
     axis 0 0 0   XYZ
    dof rx ry rz
    limits (-20.0 45.0)
           (-30.0 30.0)
           (-30.0 30.0)
  end
  begin
     id 15 
     name upperneck
     direction 0.149523 0.979068 -0.138086   
     length 1.57486   
     axis 0 0 0   XYZ
    dof rx ry rz
    limits (-20.0 45.0)
           (-30.0 30.0)
           (-30.0 30.0)
  end
  begin
     id 16
     name head
     direction 0.0445219 0.997708 -0.0509576  
     length 1.6019  
     axis 0 0 0   XYZ
    dof rx ry rz
    limits (-20.0 45.0)
           (-30.0 30.0)
           (-30.0 30.0)
  end
  begin
     id 17 
     name lclavicle
     direction 0.911271 0.381667 -0.154644  
     length 3.80848  
     axis 0 0 0   XYZ
    dof ry rz
    limits (-20.0 10.0)
           (0.0 20.0)
  end
  begin
     id 18 
     name lhumerus
     direction 1 -4.49003e-011 2.1308e-027   
     length 5.19069   
     axis 180 -30 -90   XYZ
    dof rx ry rz
    limits (-60.0 90.0)
           (-90.0 90.0)
           (-90.0 90.0)
  end
  begin
     id 19
     name lradius
     direction 1 -4.48914e-011 4.01554e-027   
     length 3.30016   
     axis 180 -30 -90   XYZ
    dof rx
    limits (-10.0 170.0)
  end
  begin
     id 20
     name lwrist
     direction 1 -4.49003e-011 1.1934e-026   
     length 1.65008   
     axis -8.46377e-015 90 90   XYZ
    dof ry
    limits (-180.0 0.0)
 end
  begin
     id 21 
     name lhand
     direction 1 -4.49034e-011 2.38659e-026   
     length 0.707698   
     axis -1.52313e-014 90 90   XYZ
    dof rx rz
    limits (-90.0 90.0)
           (-45.0 45.0)
  end
  begin
     id 22 
     name lfingers
     direction 1 -4.48691e-011 4.77775e-026   
     length 0.570564   
     axis -3.04623e-014 90 90   XYZ
    dof rx
    limits (0.0 90.0)
  end
  begin
     id 23
     name lthumb
     direction 0.707107 -6.34832e-011 0.707107   
     length 0.819219   
     axis -90 45 -1.62303e-014   XYZ
    dof rx rz
    limits (-45.0 45.0)
           (-45.0 45.0)
  end
  begin
     id 24 
     name rclavicle
     direction -0.815579 0.573708 -0.0754329   
     length 3.54371  
     axis 0 0 0   XYZ 
    dof ry rz
    limits (-10.0 20.0)
           (-20.0 0.0)
  end
  begin
     id 25 
     name rhumerus
     direction -1 -4.48956e-011 3.05351e-028  
     length 5.23924   
     axis 180 30 90   XYZ
    dof rx ry rz
    limits (-90.0 60.0)
           (-90.0 90.0)
           (-90.0 90.0)
  end
  begin
     id 26 
     name rradius
     direction -1 -4.49013e-011 3.53849e-027   
     length 3.32953   
     axis 180 30 90   XYZ
    dof rx
    limits (-10.0 170.0)
  end
  begin
     id 27 
     name rwrist
     direction -1 -4.48901e-011 1.19374e-026   
     length 1.66477   
     axis -8.46377e-015 -90 -90   XYZ
    dof ry
    limits (-180.0 0.0)
  end
  begin
     id 28
     name rhand
     direction -1 -4.48877e-011 2.38764e-026   
     length 0.607414   
     axis -1.52313e-014 -90 -90   XYZ
    dof rx rz
    limits (-90.0 90.0)
           (-45.0 45.0)
  end
  begin
     id 29
     name rfingers
     direction -1 -4.48882e-011 4.77521e-026   
     length 0.489712   
     axis -3.04623e-014 -90 -90   XYZ
    dof rx
    limits (0.0 90.0)
  end
  begin
     id 30
     name rthumb
     direction -0.707107 -6.34974e-011 0.707107   
     length 0.703132   
     axis -90 -45 1.62303e-014   XYZ
    dof rx rz
    limits (-45.0 45.0)
           (-45.0 45.0)
  end
:hierarchy
  begin
    root lhipjoint rhipjoint lowerback
    lhipjoint lfemur
    lfemur ltibia
    ltibia lfoot
    lfoot ltoes
    rhipjoint rfemur
    rfemur rtibia
    rtibia rfoot
    rfoot rtoes
    lowerback upperback
    upperback thorax
    thorax lowerneck lclavicle rclavicle
    lowerneck upperneck
    upperneck head
    lclavicle lhumerus
    lhumerus lradius
    lradius lwrist
    lwrist lhand lthumb
    lhand lfingers
    rclavicle rhumerus
    rhumerus rradius
    rradius rwrist
    rwrist rhand rthumb
    rhand rfingers
  end

#!OML:ASF E:\VariousWalksJay\Project 1\Capture day 1\Session 1\Actor2.ASF
:FULLY-SPECIFIED
:DEGREES
127
root 15.6828 17.3753 -7.96196 5.43178 -28.6766 -10.3764
lowerback -8.25184 -0.797397 8.68486
upperback 0.710713 -1.94121 0.0574145
thorax 5.11117 -0.719676 -5.0667
lowerneck -11.5036 -3.60927 -4.44051
upperneck 14.0423 -5.97396 10.9102
head 6.64081 -2.28939 3.68373
rclavicle -5.4144e-014 -1.19271e-014
rhumerus -80.3593 20.3808 -135.611
rradius 67.5675
rwrist 11.2125
rhand -8.33313 -6.69548
rfingers 7.12502
rthumb 17.5883 -35.9199
lclavicle -5.4144e-014 -1.19271e-014
lhumerus -88.5402 -30.8487 151.236
lradius 64.3804
lwrist 3.55957
lhand -28.9338 20.3563
lfingers 7.12502
lthumb -2.2878 50.3237
rfemur -9.73855 -0.627297 31.9436
rtibia 30.6955
rfoot -20.5208 -4.41549
rtoes 4.15529
lfemur -2.98059 3.76785 -11.5583
ltibia 27.7345
lfoot -24.3366 2.13909
ltoes -4.24789
128
root 15.6675 17.3741 -7.96048 5.44906 -28.5816 -10.4094
lowerback -8.25597 -0.770971 8.72097
upperback 0.669231 -1.90806 0.0592123
thorax 5.07355 -0.705447 -5.0807
lowerneck -11.4901 -3.63925 -4.46637
upperneck 14.1798 -6.02562 10.9126
head 6.68723 -2.3125 3.68509
rclavicle 5.00937e-014 -2.22639e-014
rhumerus -80.3621 20.3796 -135.629
rradius 67.5488
rwrist 11.1969
rhand -8.39262 -6.6282
rfingers 7.12502
rthumb 17.531 -35.8578
lclavicle 5.00937e-014 -2.22639e-014
lhumerus -88.5558 -30.8306 151.255
lradius 64.3611
lwrist 3.55877
lhand -29.1254 20.4282
lfingers 7.12502
lthumb -2.47286 50.3936
rfemur -9.69539 -0.684056 32.0334
rtibia 30.6486
rfoot -20.5465 -4.43592
rtoes 4.22143
lfemur -2.98739 3.71978 -11.4577
ltibia 27.7639
lfoot -24.3605 2.08104
ltoes -4.28235
129
root 15.6519 17.3732 -7.95782 5.44533 -28.4873 -10.4015
lowerback -8.27837 -0.747214 8.72625
upperback 0.632066 -1.87687 0.0508515
thorax 5.05107 -0.692031 -5.089
lowerneck -11.4719 -3.66969 -4.49467
upperneck 14.3278 -6.07781 10.9097
head 6.7361 -2.33632 3.68523
rclavicle -3.30976e-014 2.38542e-015
rhumerus -80.3693 20.3781 -135.644
rradius 67.5334
rwrist 11.1803
rhand -8.44979 -6.56273
rfingers 7.12502
rthumb 17.476 -35.7972
lclavicle -3.30976e-014 2.38542e-015
lhumerus -88.5513 -30.8024 151.252
lradius 64.3386
lwrist 3.539
lhand -29.3071 20.4975
lfingers 7.12502
lthumb -2.6483 50.4608
rfemur -9.65477 -0.751653 32.0807
rtibia 30.6214
rfoot -20.5862 -4.44918
rtoes 4.27394
lfemur -2.9713 3.66818 -11.401
ltibia 27.7623
lfoot -24.3768 2.02999
ltoes -4.31682
130
root 15.636 17.3724 -7.95424 5.42049 -28.3882 -10.349
lowerback -8.3132 -0.725425 8.6952
upperback 0.599232 -1.84545 0.0301274
thorax 5.0408 -0.678572 -5.09036
lowerneck -11.4664 -3.70183 -4.5158
upperneck 14.4949 -6.13457 10.902
head 6.79341 -2.36146 3.68213
rclavicle -2.82523e-014 1.51076e-014
rhumerus -80.3687 20.3714 -135.649
rradius 67.523
rwrist 11.1576
rhand -8.51042 -6.50495
rfingers 7.12502
rthumb 17.4177 -35.7446
lclavicle -2.82523e-014 1.51076e-014
lhumerus -88.5535 -30.787 151.257
lradius 64.317
lwrist 3.51674
lhand -29.4847 20.5844
lfingers 7.12502
lthumb -2.81985 50.5455
rfemur -9.61949 -0.831274 32.0836
rtibia 30.614
rfoot -20.6402 -4.45931
rtoes 4.31638
lfemur -2.93673 3.61273 -11.39
ltibia 27.7303
lfoot -24.3833 1.98138
ltoes -4.35375
131
root 15.6202 17.3719 -7.9505 5.38533 -28.2775 -10.2699
lowerback -8.35118 -0.712141 8.63493
upperback 0.564165 -1.82256 0.00906028
thorax 5.02937 -0.670227 -5.07665
lowerneck -11.4683 -3.73031 -4.53709
upperneck 14.681 -6.18733 10.8899
head 6.85771 -2.38434 3.67812
rclavicle -4.16454e-014 -2.14687e-014
rhumerus -80.3795 20.3654 -135.646
rradius 67.5186
rwrist 11.131
rhand -8.57518 -6.45106
rfingers 7.12502
rthumb 17.3553 -35.6962
lclavicle -4.16454e-014 -2.14687e-014
lhumerus -88.5296 -30.755 151.24
lradius 64.2921
lwrist 3.47627
lhand -29.6608 20.679
lfingers 7.12502
lthumb -2.98985 50.6378
rfemur -9.59649 -0.918509 32.0615
rtibia 30.6288
rfoot -20.7088 -4.4728
rtoes 4.36487
lfemur -2.89002 3.5536 -11.4049
ltibia 27.6652
lfoot -24.3731 1.9307
ltoes -4.39676
132
root 15.6044 17.3715 -7.94679 5.33937 -28.1553 -10.1688
lowerback -8.38868 -0.711624 8.55209
upperback 0.52525 -1.8142 -0.0103535
thorax 5.01201 -0.670062 -5.05003
lowerneck -11.4581 -3.75181 -4.56781
upperneck 14.8755 -6.22916 10.8738
head 6.92184 -2.40303 3.67573
rclavicle -9.6659e-015 1.59028e-014
rhumerus -80.4119 20.367 -135.641
rradius 67.5214
rwrist 11.1013
rhand -8.63883 -6.40429
rfingers 7.12502
rthumb 17.2941 -35.6548
lclavicle -9.6659e-015 1.59028e-014
lhumerus -88.4808 -30.6999 151.207
lradius 64.2684
lwrist 3.42787
lhand -29.8377 20.7827
lfingers 7.12502
lthumb -3.16074 50.739
rfemur -9.57791 -1.01217 32.0187
rtibia 30.6527
rfoot -20.7843 -4.49133
rtoes 4.40732
lfemur -2.8415 3.4889 -11.4417
ltibia 27.5916
lfoot -24.3576 1.87863
ltoes -4.44364
133
root 15.5886 17.3714 -7.9417 5.25955 -28.0249 -10.0022
lowerback -8.4486 -0.71444 8.42229
upperback 0.499119 -1.80708 -0.0519755
thorax 5.0212 -0.669759 -5.02152
lowerneck -11.4532 -3.77696 -4.59028
upperneck 15.0665 -6.27651 10.8545
head 6.98605 -2.42411 3.67023
rclavicle 3.56818e-014 -5.56597e-015
rhumerus -80.421 20.367 -135.624
rradius 67.5266
rwrist 11.0756
rhand -8.7046 -6.35947
rfingers 7.12502
rthumb 17.2308 -35.6155
lclavicle 3.56818e-014 -5.56597e-015
lhumerus -88.4273 -30.658 151.157
lradius 64.2466
lwrist 3.37205
lhand -30.0116 20.8875
lfingers 7.12502
lthumb -3.32863 50.8412
rfemur -9.55379 -1.13828 31.9049
rtibia 30.6824
rfoot -20.8678 -4.48502
rtoes 4.45837
lfemur -2.78389 3.40609 -11.5505
ltibia 27.5158
lfoot -24.3501 1.83953
ltoes -4.49369
134
root 15.5733 17.3709 -7.93954 5.22904 -27.8938 -9.91776
lowerback -8.48724 -0.717269 8.35837
upperback 0.467065 -1.80541 -0.0722908
thorax 5.01027 -0.671827 -5.00743
lowerneck -11.4403 -3.80072 -4.61593
upperneck 15.2514 -6.32033 10.8322
head 7.04665 -2.44439 3.66469
rclavicle -8.31417e-014 -2.54444e-014
rhumerus -80.4274 20.3728 -135.604
rradius 67.5347
rwrist 11.0522
rhand -8.76849 -6.31652
rfingers 7.12502
rthumb 17.1693 -35.578
lclavicle -8.31417e-014 -2.54444e-014
lhumerus -88.355 -30.609 151.082
lradius 64.2284
lwrist 3.30864
lhand -30.1794 20.9879
lfingers 7.12502
lthumb -3.49069 50.9391
rfemur -9.55163 -1.21142 31.8825
rtibia 30.7085
rfoot -20.9403 -4.5248
rtoes 4.52284
lfemur -2.75907 3.3285 -11.5727
ltibia 27.4521
lfoot -24.3304 1.79929
ltoes -4.54991
135
root 15.5581 17.3704 -7.93766 5.19647 -27.7551 -9.83256
lowerback -8.5241 -0.722538 8.29486
upperback 0.439687 -1.80695 -0.0945675
thorax 5.00276 -0.675119 -4.99604
lowerneck -11.4294 -3.82544 -4.63645
upperneck 15.432 -6.36599 10.8101
head 7.10635 -2.46532 3.65808
rclavicle -7.05686e-014 -5.56597e-015
rhumerus -80.4201 20.3783 -135.575
rradius 67.5474
rwrist 11.0308
rhand -8.83058 -6.27519
rfingers 7.12502
rthumb 17.1095 -35.5418
lclavicle -7.05686e-014 -5.56597e-015
lhumerus -88.2852 -30.5712 151.007
lradius 64.2146
lwrist 3.26324
lhand -30.3481 21.0667
lfingers 7.12502
lthumb -3.65367 51.0151
rfemur -9.54663 -1.29181 31.8587
rtibia 30.7304
rfoot -21.0131 -4.56025
rtoes 4.60494
lfemur -2.74131 3.24766 -11.5952
ltibia 27.401
lfoot -24.3156 1.75745
ltoes -4.61396
136
root 15.5431 17.3697 -7.93599 5.16189 -27.6106 -9.75223
lowerback -8.54809 -0.731501 8.23272
upperback 0.41122 -1.81248 -0.112373
thorax 4.98635 -0.680834 -4.98073
lowerneck -11.4083 -3.84833 -4.66455
upperneck 15.6078 -6.40905 10.7964
head 7.16309 -2.48527 3.65582
rclavicle -6.68413e-014 1.59028e-015
rhumerus -80.4149 20.3816 -135.538
rradius 67.5637
rwrist 11.0174
rhand -8.88819 -6.23153
rfingers 7.12502
rthumb 17.0541 -35.503
lclavicle -6.68413e-014 1.59028e-015
lhumerus -88.2085 -30.525 150.927
lradius 64.1997
lwrist 3.22345
lhand -30.5208 21.1244
lfingers 7.12502
lthumb -3.82036 51.0699
rfemur -9.53212 -1.37926 31.8393
rtibia 30.7398
rfoot -21.08 -4.59094
rtoes 4.69857
lfemur -2.73524 3.16412 -11.6121
ltibia 27.3778
lfoot -24.3131 1.71219
ltoes -4.67386
137
root 15.5281 17.3688 -7.9348 5.1293 -27.4631 -9.68746
lowerback -8.5622 -0.741291 8.18505
upperback 0.386992 -1.81998 -0.127627
thorax 4.96829 -0.687115 -4.97088
lowerneck -11.3852 -3.86946 -4.69428
upperneck 15.7774 -6.45055 10.7919
head 7.21781 -2.50407 3.65704
rclavicle -5.06404e-014 -7.95139e-015
rhumerus -80.4052 20.3827 -135.496
rradius 67.5873
rwrist 11.0105
rhand -8.9419 -6.18636
rfingers 7.12502
rthumb 17.0024 -35.4623
lclavicle -5.06404e-014 -7.95139e-015
lhumerus -88.1329 -30.4866 150.846
lradius 64.1862
lwrist 3.19425
lhand -30.6892 21.1576
lfingers 7.12502
lthumb -3.98299 51.1001
rfemur -9.51142 -1.46943 31.8354
rtibia 30.7433
rfoot -21.143 -4.62094
rtoes 4.78338
lfemur -2.73421 3.08187 -11.6114
ltibia 27.3702
lfoot -24.3161 1.66448
ltoes -4.74256
138
root 15.5131 17.3675 -7.93407 5.10259 -27.3177 -9.64528
lowerback -8.57291 -0.745688 8.16127
upperback 0.373606 -1.82291 -0.143385
thorax 4.95983 -0.689736 -4.97458
lowerneck -11.3738 -3.89231 -4.71604
upperneck 15.9407 -6.49682 10.7966
head 7.27321 -2.52371 3.65924
rclavicle 6.52014e-014 7.95139e-016
rhumerus -80.3717 20.3829 -135.449
rradius 67.6113
rwrist 11.005
rhand -8.9938 -6.13708
rfingers 7.12502
rthumb 16.9524 -35.4173
lclavicle 6.52014e-014 7.95139e-016
lhumerus -88.0671 -30.4744 150.769
lradius 64.1714
lwrist 3.17533
lhand -30.8572 21.1707
lfingers 7.12502
lthumb -4.1452 51.1101
rfemur -9.48449 -1.55868 31.8538
rtibia 30.7407
rfoot -21.1992 -4.6498
rtoes 4.85426
lfemur -2.73886 3.01861 -11.5833
ltibia 27.3803
lfoot -24.3253 1.59825
ltoes -4.81248
